<?xml version="1.0" encoding="utf-8"?>
<!-- Generator: Adobe Illustrator 25.4.1, SVG Export Plug-In . SVG Version: 6.00 Build 0)  -->
<svg version="1.0" id="katman_1" xmlns="http://www.w3.org/2000/svg" xmlns:xlink="http://www.w3.org/1999/xlink" x="0px" y="0px"
	 viewBox="0 0 1700 1200" style="enable-background:new 0 0 1700 1200;" xml:space="preserve">
<style type="text/css">
	.st0{fill-rule:evenodd;clip-rule:evenodd;fill:#4BA373;}
</style>
<path class="st0" d="M877.2,522.9V600c0,27.5,15.9,44.8,43,44.8c25.9,0,43.2-21.8,43.2-46.8v-75.2H987v144.4
	c0,47.1-30.2,68.6-65.7,68.6c-38.7,0-62-19.3-64.3-52.5h22.5c3.1,21.3,17.6,30.6,41.5,30.6c23.3,0,43.5-14.7,43.5-47.1v-26.4
	c-12.2,18.1-29.6,25.2-49.2,25.5c-35.6,0-61.5-25-61.5-65.8v-77.4C853.9,522.9,877.2,522.9,877.2,522.9z M245.4,519.7
	c39.8,0,70.8,21.8,70.8,69.5c0,3.7-0.3,7.7-0.6,11.6H195.9c2.6,27.2,24.5,44,51.2,44c15.7,0,35.6-6,44.7-17.3l15.9,13.9h-0.3
	c-14.8,17-39,25-60.9,25c-43.5,0-74-28.4-74-74C172.5,550.1,203,519.7,245.4,519.7L245.4,519.7z M1326.5,519.7
	c39.8,0,70.8,21.8,70.8,69.5c0,3.7-0.3,7.7-0.6,11.6H1277c2.5,27.2,24.5,44,51.2,44c15.7,0,35.6-6,44.7-17.3l15.9,13.9h-0.3
	c-14.8,17-39,25-60.9,25c-43.5,0-74-28.4-74-74C1253.6,550.1,1284.1,519.7,1326.5,519.7z M561.2,519.7c39.8,0,70.8,21.8,70.8,69.5
	c0,3.7-0.3,7.7-0.6,11.6H511.7c2.5,27.2,24.5,44,51.2,44c15.7,0,35.6-6,44.7-17.3l15.9,13.9h-0.3c-14.8,17-39,25-60.9,25
	c-43.5,0-74-28.4-74-74C488.3,550.1,518.8,519.7,561.2,519.7z M356.4,522.9l23,54.7l23.6,61l23.6-60.7l22.8-55h25.9l-59.5,140.4
	h-25.3l-59.7-140.4H356.4z M1043.3,522.9l38.1,115.7l37-115.7h19.1l37.3,115.7l37.8-115.7h25.6l-48.9,140.4h-26.7l-19.3-52.2
	L1128,560l-15.4,51l-19.1,52.2h-26.5l-49.8-140.4H1043.3L1043.3,522.9z M731.4,519.8c11.9,0,23.3,5.1,31.9,11.1l-10.5,19.8
	c-7.7-5.4-14.5-7.9-24.5-7.9c-22.5,0-41.3,16.4-41.3,42v78.3h-23.3V522.9h21.6l2,20.7C697.9,525.1,715.5,519.8,731.4,519.8
	L731.4,519.8z M814.7,464.4v198.5h-23V464.4C791.6,464.4,814.7,464.4,814.7,464.4z M1453.1,464.4v198.5H1430V464.4
	C1430,464.4,1453.1,464.4,1453.1,464.4z M1527.9,464.4v198.5h-23V464.4C1504.9,464.4,1527.9,464.4,1527.9,464.4z M246,540.7
	c-24.5,0-45.5,13.6-50.1,40.8h97.3C292.3,554.6,273.5,540.7,246,540.7L246,540.7z M1327,540.7c-24.5,0-45.5,13.6-50.1,40.8h97.3
	C1373.4,554.6,1354.6,540.7,1327,540.7z M561.7,540.7c-24.5,0-45.5,13.6-50.1,40.8H609C608.1,554.6,589.3,540.7,561.7,540.7z"/>
</svg>
